<?xml version="1.0" standalone="no"?>
<!DOCTYPE svg PUBLIC "-//W3C//DTD SVG 20010904//EN"
 "http://www.w3.org/TR/2001/REC-SVG-20010904/DTD/svg10.dtd">
<svg version="1.0" xmlns="http://www.w3.org/2000/svg"
 width="900.000000pt" height="900.000000pt" viewBox="0 0 900.000000 900.000000"
 preserveAspectRatio="xMidYMid meet">
<metadata>
Created by potrace 1.11, written by Peter Selinger 2001-2013
</metadata>
<g transform="translate(0.000000,900.000000) scale(0.100000,-0.100000)"
fill="#000000" stroke="none">
<path d="M4458 8952 c-52 -26 -108 -58 -124 -71 -16 -12 -78 -56 -139 -97 -60
-41 -121 -82 -135 -92 -46 -31 -343 -245 -430 -309 -47 -35 -90 -67 -95 -71
-6 -4 -44 -32 -85 -63 -189 -140 -396 -293 -513 -379 -71 -52 -146 -108 -167
-125 -21 -16 -59 -46 -85 -65 -25 -19 -61 -47 -80 -62 -18 -16 -35 -28 -38
-28 -5 0 -161 -114 -296 -218 -41 -31 -95 -72 -120 -90 -26 -18 -66 -48 -91
-67 -25 -19 -56 -43 -70 -53 -30 -20 -249 -183 -438 -326 -192 -145 -390 -293
-441 -329 -25 -18 -67 -50 -95 -72 -28 -23 -82 -63 -120 -89 -75 -53 -74 -52
-126 -94 -19 -15 -48 -36 -63 -46 -16 -9 -62 -49 -103 -88 -96 -91 -146 -188
-152 -291 -3 -39 1 -79 7 -93 6 -13 17 -36 23 -51 27 -61 112 -123 203 -149
54 -15 86 -16 375 -5 173 7 368 16 434 22 65 6 122 7 127 2 4 -4 10 -350 13
-768 3 -418 10 -807 15 -865 28 -301 42 -407 71 -505 6 -22 14 -53 17 -70 3
-16 9 -34 13 -40 4 -5 13 -31 21 -57 7 -27 17 -48 21 -48 4 0 8 -8 8 -17 0
-10 13 -40 29 -68 16 -27 42 -74 57 -102 16 -29 32 -53 36 -53 4 0 8 -6 8 -14
0 -7 7 -20 16 -27 9 -8 27 -31 41 -52 42 -66 245 -259 340 -323 100 -67 303
-171 355 -181 18 -3 44 -12 58 -20 14 -7 35 -13 47 -13 12 0 24 -4 27 -9 3 -4
22 -12 43 -16 21 -4 63 -12 93 -18 80 -15 2464 -22 2935 -8 352 11 538 24 560
41 6 4 23 10 39 14 35 9 135 102 157 148 43 88 55 137 65 263 14 177 5 498
-17 595 -17 72 -70 169 -111 201 -52 41 -132 76 -208 89 -36 6 -87 16 -113 21
-28 5 -482 9 -1072 9 l-1023 0 -41 -38 c-40 -37 -41 -40 -41 -103 0 -61 2 -67
33 -95 17 -17 44 -36 60 -42 20 -9 291 -12 1040 -12 882 0 1019 -2 1056 -15
24 -8 56 -15 71 -15 55 0 64 -37 76 -320 9 -212 -13 -388 -51 -420 -33 -27
-343 -33 -1820 -37 -957 -3 -1523 0 -1545 6 -208 58 -256 75 -372 133 -97 49
-189 112 -262 178 -39 35 -196 224 -196 235 0 3 -15 29 -33 58 -18 29 -37 63
-43 77 -6 14 -20 45 -31 70 -86 187 -132 607 -134 1210 -1 195 -4 552 -8 792
l-6 437 -32 33 c-41 42 -104 62 -175 53 -29 -3 -199 -11 -378 -16 -179 -6
-382 -13 -452 -16 -85 -3 -128 -2 -128 5 0 6 5 14 10 17 6 3 10 14 10 24 0 16
33 51 96 101 45 36 418 316 439 330 13 8 36 25 52 38 45 37 168 128 185 138 8
5 31 21 49 36 19 15 99 75 179 135 80 59 150 112 156 118 6 5 37 28 68 50 32
22 83 60 115 85 31 25 70 54 85 65 62 45 412 308 432 325 12 9 25 19 30 21 8
4 274 200 483 358 41 31 106 78 145 105 39 27 73 52 76 56 3 3 68 53 145 109
77 57 151 111 165 122 14 10 61 44 105 75 44 32 82 60 85 63 11 13 477 347
579 414 182 121 204 128 282 90 50 -25 328 -211 464 -310 60 -44 300 -216 533
-381 218 -154 249 -177 273 -195 188 -138 219 -153 281 -131 54 19 55 20 166
154 53 63 128 153 167 200 39 47 82 101 97 120 14 19 46 57 70 84 42 47 45 48
63 33 35 -28 296 -230 369 -285 39 -30 75 -57 79 -62 5 -4 -16 -42 -45 -84
-29 -43 -57 -85 -63 -94 -5 -9 -13 -19 -16 -22 -3 -3 -24 -32 -46 -65 -22 -33
-80 -118 -129 -188 -49 -70 -93 -135 -99 -145 -5 -9 -18 -28 -27 -41 -22 -29
-23 -92 -3 -130 8 -16 65 -66 127 -112 143 -104 244 -179 333 -244 158 -115
359 -265 503 -374 84 -64 160 -121 170 -126 9 -6 26 -18 37 -27 11 -10 76 -61
145 -114 119 -92 270 -222 298 -254 23 -27 31 -46 24 -57 -5 -7 -175 -15 -517
-23 l-510 -13 -34 -25 c-18 -13 -39 -39 -46 -56 -10 -24 -14 -344 -19 -1461
-8 -1817 -11 -1882 -116 -2054 -81 -135 -171 -233 -315 -344 -75 -58 -211
-125 -335 -166 -105 -35 -121 -39 -204 -56 -44 -9 -84 -19 -89 -22 -16 -10
-1410 -4 -1575 7 -81 5 -237 10 -347 10 -185 0 -203 -2 -234 -21 -19 -11 -104
-89 -189 -172 -86 -84 -167 -163 -181 -176 -14 -14 -77 -74 -141 -135 -63 -61
-225 -216 -360 -346 -135 -129 -280 -269 -322 -309 l-78 -74 0 584 0 585 -33
31 c-17 18 -45 37 -60 42 -33 13 -824 14 -2005 4 l-782 -6 0 -145 0 -145 1293
4 1292 4 2 -660 c2 -363 5 -670 8 -683 5 -22 8 -22 148 -22 l142 1 135 132
c75 72 227 220 339 327 295 282 288 275 532 511 123 119 262 253 309 297 l85
81 180 1 c99 0 263 -5 365 -10 102 -5 471 -11 820 -12 l635 -1 125 27 c244 53
259 56 266 67 3 5 14 9 25 9 10 0 27 4 37 9 9 5 49 22 87 37 39 15 92 41 118
56 26 15 50 28 52 28 2 0 31 17 63 38 138 89 324 272 420 414 44 64 102 177
102 198 0 9 3 20 7 23 15 16 43 153 52 264 19 214 31 982 31 2011 0 801 3
1013 13 1017 6 2 197 6 422 9 406 5 441 8 520 41 104 45 186 203 170 331 -12
102 -106 207 -370 417 -82 66 -159 127 -171 137 -12 10 -28 21 -36 26 -9 5
-31 21 -49 36 -47 37 -167 128 -269 203 -252 186 -386 286 -455 335 -174 126
-245 181 -245 191 0 6 23 42 50 80 28 38 50 73 50 78 0 6 6 14 13 18 6 4 33
40 59 78 26 39 77 113 113 165 144 206 155 224 155 270 0 49 -27 99 -67 125
-25 17 -134 101 -263 202 -69 55 -86 68 -190 148 -47 36 -102 79 -123 96 -122
99 -156 119 -206 119 -65 0 -89 -19 -213 -169 -67 -80 -125 -148 -128 -151 -3
-3 -32 -39 -65 -80 -32 -41 -66 -82 -75 -91 -8 -8 -33 -39 -55 -67 -21 -29
-44 -52 -50 -52 -5 0 -57 34 -115 75 -58 42 -136 98 -175 125 -38 27 -91 64
-116 82 -26 18 -96 68 -155 110 -60 43 -113 81 -119 86 -18 14 -249 178 -330
234 -45 30 -103 70 -130 89 -83 58 -199 127 -256 154 -46 21 -68 25 -155 25
-101 0 -101 0 -196 -48z"/>
<path d="M4515 5606 c-30 -24 -30 -25 -32 -129 -2 -93 0 -109 18 -131 l20 -26
323 0 c402 0 376 -11 376 150 l0 108 -31 26 -31 26 -306 0 -307 0 -30 -24z"/>
<path d="M3295 5605 c-5 -2 -37 -11 -70 -20 -33 -9 -69 -21 -80 -25 -11 -5
-28 -11 -38 -14 -10 -3 -50 -25 -89 -48 -39 -24 -79 -48 -90 -54 -58 -34 -156
-133 -240 -244 -32 -42 -107 -206 -128 -280 -29 -101 -38 -315 -17 -415 22
-101 36 -153 46 -173 5 -9 20 -39 32 -67 47 -104 165 -255 255 -325 69 -54
102 -75 181 -114 88 -44 117 -55 228 -82 111 -27 422 -15 460 18 5 4 19 8 30
8 33 0 202 87 277 142 158 117 299 314 343 484 8 30 17 58 20 63 3 6 10 57 15
115 17 180 -9 342 -82 495 -69 147 -168 269 -294 362 -62 46 -238 139 -264
139 -8 0 -42 9 -74 20 -50 17 -85 20 -235 19 -97 0 -180 -2 -186 -4z m402
-184 c109 -35 157 -59 244 -123 120 -87 224 -224 264 -348 10 -30 24 -72 32
-93 15 -42 19 -346 5 -362 -5 -6 -19 -41 -32 -80 -75 -229 -255 -409 -485
-483 -16 -5 -47 -15 -68 -22 -51 -16 -304 -16 -354 1 -170 54 -280 117 -368
211 -64 68 -115 140 -144 203 -13 28 -27 59 -33 71 -5 11 -8 24 -7 30 1 5 -2
20 -8 34 -40 93 -43 296 -7 420 22 72 73 183 110 238 93 137 272 266 419 301
28 6 57 16 65 21 8 5 74 10 147 10 118 0 141 -3 220 -29z"/>
<path d="M3365 5324 c-95 -23 -126 -34 -190 -66 -294 -147 -437 -504 -322
-808 80 -212 263 -374 477 -423 58 -13 263 -13 315 0 105 26 238 104 320 189
66 68 68 71 113 156 55 105 75 199 69 323 -5 126 -14 160 -65 267 -64 131
-186 249 -323 311 -122 56 -289 77 -394 51z m229 -174 c14 -5 32 -22 40 -39
14 -27 14 -31 -7 -62 -46 -69 -138 -28 -123 54 5 26 14 38 34 45 15 6 28 11
29 11 1 1 13 -3 27 -9z m305 -238 c45 -22 69 -66 70 -125 1 -79 -35 -130 -105
-145 -62 -13 -111 4 -145 51 -91 125 43 287 180 219z"/>
<path d="M7794 1643 c-41 -3 -60 -11 -90 -37 -37 -32 -39 -37 -39 -93 0 -70
14 -101 58 -128 31 -19 52 -20 655 -23 l622 -3 0 146 0 145 -577 -2 c-318 -1
-601 -3 -629 -5z"/>
</g>
</svg>
